<svg width="64" height="64" viewBox="0 0 64 64" fill="none" xmlns="http://www.w3.org/2000/svg">
<path fill-rule="evenodd" clip-rule="evenodd" d="M42.4821 38.1754C51.3186 38.1754 58.4821 30.8863 58.4821 21.8947C58.4821 12.9032 51.3186 5.61403 42.4821 5.61403C33.6455 5.61403 26.4821 12.9032 26.4821 21.8947C26.4821 30.8863 33.6455 38.1754 42.4821 38.1754ZM42.4821 43.7895C54.3657 43.7895 63.9993 33.9869 63.9993 21.8947C63.9993 9.80261 54.3657 0 42.4821 0C30.5984 0 20.9648 9.80261 20.9648 21.8947C20.9648 33.9869 30.5984 43.7895 42.4821 43.7895Z" fill="#2B62A4"/>
<path fill-rule="evenodd" clip-rule="evenodd" d="M21.5172 38.1754C30.3538 38.1754 37.5172 30.8863 37.5172 21.8947C37.5172 12.9032 30.3538 5.61403 21.5172 5.61403C12.6807 5.61403 5.51724 12.9032 5.51724 21.8947C5.51724 30.8863 12.6807 38.1754 21.5172 38.1754ZM21.5172 43.7895C33.4009 43.7895 43.0345 33.9869 43.0345 21.8947C43.0345 9.80261 33.4009 0 21.5172 0C9.63359 0 0 9.80261 0 21.8947C0 33.9869 9.63359 43.7895 21.5172 43.7895Z" fill="#1FC5B7"/>
<path fill-rule="evenodd" clip-rule="evenodd" d="M33.6559 58.3859C42.4924 58.3859 49.6559 51.0968 49.6559 42.1052C49.6559 33.1136 42.4924 25.8245 33.6559 25.8245C24.8193 25.8245 17.6559 33.1136 17.6559 42.1052C17.6559 51.0968 24.8193 58.3859 33.6559 58.3859ZM33.6559 63.9999C45.5395 63.9999 55.1731 54.1973 55.1731 42.1052C55.1731 30.0131 45.5395 20.2104 33.6559 20.2104C21.7723 20.2104 12.1387 30.0131 12.1387 42.1052C12.1387 54.1973 21.7723 63.9999 33.6559 63.9999Z" fill="#12A2D6"/>
</svg>
